{"asset":{"version":"2.0","generator":"THREE.GLTFExporter"},"scenes":[{"nodes":[0]}],"scene":0,"nodes":[{"mesh":0}],"bufferViews":[{"buffer":0,"byteOffset":0,"byteLength":19764,"target":34962,"byteStride":12},{"buffer":0,"byteOffset":19764,"byteLength":3296,"target":34963}],"buffers":[{"byteLength":23060,"uri":"data:application/octet-stream;base64,"}],"accessors":[{"bufferView":0,"componentType":5126,"count":1647,"max":[49.80000305175781,1.5125547647476196,15.300003051757812],"min":[-24.799999237060547,-1.4374452829360962,-40.29999542236328],"type":"VEC3"},{"bufferView":1,"componentType":5123,"count":1647,"max":[1646],"min":[0],"type":"SCALAR"}],"materials":[{"pbrMetallicRoughness":{"metallicFactor":0,"roughnessFactor":1}}],"meshes":[{"primitives":[{"mode":4,"attributes":{"POSITION":0},"indices":1,"material":0}]}]}